<svg id="Layer_1" data-name="Layer 1" xmlns="http://www.w3.org/2000/svg" viewBox="0 0 1827.32 1047.83"><defs><style>.cls-1{opacity:0.4;}.cls-2{fill:#b7e9bf;}.cls-3{opacity:0.6;}.cls-4{fill:#001900;}.cls-5{fill:#d81f72;}.cls-6{fill:#190019;}.cls-7{fill:#4072c4;}.cls-8{fill:#000019;}.cls-9{fill:#e2e220;}.cls-10{fill:#191900;}</style></defs><g class="cls-1"><circle class="cls-2" cx="221.5" cy="306.5" r="221.5"/></g><g class="cls-3"><path class="cls-4" d="M126.1,289.64q-.82-9.76,2.22-32t7.92-36.74q3.63-10.8,12.65-15.53a29.41,29.41,0,0,1,19.46-2.79,42.22,42.22,0,0,1,9.67,2.3q20.19,6.78,21.47,24.63.82,9.76-3.79,36.23t-8.06,34.79q-3.15,8.44-13.21,10.12a64.25,64.25,0,0,1-21.44-.25,62.3,62.3,0,0,1-10.24-2.49Q127.67,302.83,126.1,289.64Zm35.05,131.11q-4.69-17.1-.3-30.17,4.88-14.5,20.35-21a98.34,98.34,0,0,1,12.06-3.86,172.94,172.94,0,0,0,27.92-10.55q13.57-6.51,34.88-22.78,17.29-13.8,26.29-25a169.46,169.46,0,0,0,16.33-24.58q7.05-12.5,12.76-18.18,12.56-12.87,31-6.66a55.71,55.71,0,0,1,17.71,10.39Q371.85,277.95,374,289t-2.62,25.23a129.56,129.56,0,0,1-5.64,13.93Q352.28,357.77,327,383a217.11,217.11,0,0,1-57.17,41.07q-31.92,15.85-64.65,18.15a54.77,54.77,0,0,1-23.52-2.53Q165.19,434.13,161.15,420.75Zm38.44-118.11q-1.5-9.67,2.31-33.25T211,231.14q3.61-9.85,12.22-13.77a31,31,0,0,1,18.75-2.09,71,71,0,0,1,9.76,2q10.51,3.52,15.77,10A24.63,24.63,0,0,1,273,242.49q.82,9.78-3.93,36.18t-8.11,34.47q-5.07,14.13-34.46,10.25a55.09,55.09,0,0,1-10-2.4Q201.18,315.83,199.59,302.64Z"/></g><g class="cls-1"><ellipse class="cls-5" cx="708.06" cy="690.9" rx="357.02" ry="356.93"/></g><g class="cls-3"><path class="cls-6" d="M675.49,860.3Q672.31,847,667,801.1q-95.52-18.33-123-25.7-43.47-11.64-36.53-56.89a81.24,81.24,0,0,1,2.85-18.39q5.31-19.79,18.33-29.77t39.08-8.69q15.87.65,89.78,12.66l-1.2-22.58Q588,638.11,573,634.1q-20.78-5.57-31.35-22.11t-8.14-39.19q1.35-9,2.14-11.85,5.18-19.31,20-30.11t31.51-9.42q14.28.72,67,8.64a125,125,0,0,1,3.15-21.42q5-18.84,17.85-27.05t37.07-7.93q18.9.91,29,3.64,20.28,5.43,29.35,21.83t14.27,53q31.22,5.25,56.77,10.28t36.2,7.88Q903,577,913.21,591.14t9,39.69a106.35,106.35,0,0,1-3.08,17.29q-4.53,16.9-14.76,27.1a34.62,34.62,0,0,1-24.31,10.57q-16.85-.88-85.7-10.52l1.52,25.25,12.33,2.27q35.29,7.38,45,10,29,7.77,40.57,21.48t9.28,43.64A112.33,112.33,0,0,1,900,795.16q-5.18,19.32-17.19,27.49T852.08,831q-18.68.18-49.88-5.08-.23,20.13-1,31.58a103.49,103.49,0,0,1-3.07,20.14q-4.39,16.41-15.5,24.06t-33.94,9.81q-18.59,1.74-32.59-2Q684.76,901.09,675.49,860.3Z"/></g><g class="cls-1"><circle class="cls-7" cx="1317" cy="306" r="306"/></g><g class="cls-3"><path class="cls-8" d="M1256.6,440.42q-65.8-25.69-83.15-38.21-22.74-15.61-16.11-40.34a67.33,67.33,0,0,1,4.44-10.4q7.44-15.41,18.77-22.93a34.59,34.59,0,0,1,24.88-5.55q7.93,1.31,15.66,3.37,24,6.4,64.55,21.84t75.85,30.66q35.25,15.24,42.83,21,12.36,9.52,15.93,19.38a34.44,34.44,0,0,1,.57,21.07,48.43,48.43,0,0,1-4.76,11.56q-7,16.77-21,23.37t-37.56.3Q1322.39,466.11,1256.6,440.42Zm35.62-102.88q-47.23-18.45-63.53-30.27-11.51-8.06-15.29-17.14t-.67-20.67a104.13,104.13,0,0,1,3.46-9.84q6.94-15.12,16.69-20.59t24.67-3.95a139.07,139.07,0,0,1,19.63,4q32.83,8.81,82.8,29.42t61,29q13.23,9.34,17.2,18.47t1.08,20q-.63,2.32-3.47,9.84-6.45,14.83-17.16,20t-29.88,2.56a153.58,153.58,0,0,1-16.44-3.57Q1339.45,356,1292.22,337.54Zm32.67-97.26q-63.15-24-79.83-35.88-22.92-16.47-16.19-41.6a57.64,57.64,0,0,1,4.05-10.51q7.33-15,18.67-22.54a36.53,36.53,0,0,1,25.37-5.83q8.7,1.5,16.82,3.67,24.35,6.53,64.32,21.16t73.79,29.08q33.81,14.44,41,20.09,12.84,9.24,16.61,19.15t.66,21.5a81.68,81.68,0,0,1-4.75,11.56q-6.67,15.62-17.85,22.55T1438,277.19q-3.2-.44-13.62-3.24Q1388,264.23,1324.89,240.28Z"/></g><g class="cls-1"><ellipse class="cls-9" cx="1597.78" cy="811.22" rx="229.54" ry="229.69"/></g><g class="cls-3"><path class="cls-10" d="M1654.55,925.49q-8.55-2.64-13.74-12.16-8.82-14.18-24-54.61-7.6,18.93-16.31,36.59A284.32,284.32,0,0,1,1585.38,923a88,88,0,0,1-12.19,14.82,29.78,29.78,0,0,1-13.16,7.34q-9.6,2.42-22.56-2.37-15.73-5.94-19-19-2.28-9,1.06-20.38,2.74-10,12.68-33.81t20.15-43.44l-13.74,3.15q-28.66,6.6-41.39,7.64t-20.64-5.79q-7.9-6.83-12.81-26.32-4.17-16.59,2.17-28.85t27.22-19.07q16.36-5.05,58.55-15.67l26.18-6.59q-4.26-23.05,1.87-35.58t26.79-17.72q14-3.53,23-.7t15.33,11.77q6.27,8.94,12.27,25.37,18.91-2.28,28.48-1.14a22.51,22.51,0,0,1,15.4,8.35q5.84,7.2,10,23.77,3.23,12.81,1.7,20.3a20.69,20.69,0,0,1-8.13,12.57q-6.62,5.07-21,10.54,18.29,55.42,24.94,81.89,3.23,12.81,3.24,20.84t-6,15q-6,6.93-21,12.26c-4.18,1.46-7.13,2.41-8.88,2.85Q1663.1,928.14,1654.55,925.49Z"/></g></svg>