<svg xmlns="http://www.w3.org/2000/svg" xmlns:xlink="http://www.w3.org/1999/xlink" width="1920" zoomAndPan="magnify" viewBox="0 0 1440 809.999993" height="1080" preserveAspectRatio="xMidYMid meet" version="1.0"><defs><filter x="0%" y="0%" width="100%" height="100%" id="id1"><feColorMatrix values="0 0 0 0 1 0 0 0 0 1 0 0 0 0 1 0 0 0 1 0" color-interpolation-filters="sRGB"/></filter><g/><mask id="id2"><g filter="url(#id1)"><rect x="-144" width="1728" fill="#000000" y="-80.999999" height="971.999992" fill-opacity="0.1686"/></g></mask><clipPath id="id3"><path d="M 0.160156 0.320312 L 445.839844 0.320312 L 445.839844 326 L 0.160156 326 Z M 0.160156 0.320312 " clip-rule="nonzero"/></clipPath><clipPath id="id4"><rect x="0" width="446" y="0" height="326"/></clipPath><mask id="id5"><g filter="url(#id1)"><rect x="-144" width="1728" fill="#000000" y="-80.999999" height="971.999992" fill-opacity="0.1686"/></g></mask><clipPath id="id6"><path d="M 0.480469 0 L 446.160156 0 L 446.160156 249.601562 L 0.480469 249.601562 Z M 0.480469 0 " clip-rule="nonzero"/></clipPath><clipPath id="id7"><rect x="0" width="447" y="0" height="250"/></clipPath></defs><g mask="url(#id2)"><g transform="matrix(1, 0, 0, 1, 386, 484)"><g clip-path="url(#id4)"><g clip-path="url(#id3)"><path fill="#adf3ff" d="M 222.941406 0.441406 C 99.921875 0.441406 0.191406 100.171875 0.191406 223.191406 C 0.191406 346.214844 99.921875 445.941406 222.941406 445.941406 C 345.964844 445.941406 445.691406 346.214844 445.691406 223.191406 C 445.691406 100.171875 345.964844 0.441406 222.941406 0.441406 " fill-opacity="1" fill-rule="nonzero"/></g></g></g></g><g fill="#f4ffad" fill-opacity="1"><g transform="translate(200.786729, 508.499994)"><g><path d="M 133.703125 14.015625 C 120.203125 14.015625 109.726562 8.21875 102.28125 -3.375 C 98.132812 -10.125 96.0625 -16.269531 96.0625 -21.8125 C 96.0625 -32.195312 103.066406 -41.453125 117.078125 -49.578125 L 124.875 -53.21875 C 132.832031 -56.332031 139.191406 -59.617188 143.953125 -63.078125 C 148.710938 -66.546875 151.09375 -71.046875 151.09375 -76.578125 C 151.09375 -86.097656 137.765625 -90.859375 111.109375 -90.859375 C 101.585938 -90.859375 91.460938 -90.425781 80.734375 -89.5625 C 77.453125 -89.394531 74.078125 -89.222656 70.609375 -89.046875 C 67.148438 -88.867188 63.691406 -88.78125 60.234375 -88.78125 C 48.804688 -88.78125 39.847656 -91.632812 33.359375 -97.34375 C 26.867188 -103.0625 23.625 -111.546875 23.625 -122.796875 C 23.625 -131.273438 24.660156 -137.894531 26.734375 -142.65625 C 28.816406 -147.414062 32.191406 -150.960938 36.859375 -153.296875 C 41.535156 -155.628906 48.285156 -157.40625 57.109375 -158.625 C 70.785156 -160.53125 85.671875 -161.484375 101.765625 -161.484375 C 119.421875 -161.484375 136.554688 -160.398438 153.171875 -158.234375 C 169.785156 -156.066406 183.546875 -152.734375 194.453125 -148.234375 C 208.984375 -142.179688 219.492188 -133.398438 225.984375 -121.890625 C 232.472656 -110.378906 235.71875 -97.269531 235.71875 -82.5625 C 235.71875 -72.863281 234.769531 -64.207031 232.875 -56.59375 C 226.644531 -27.175781 201.722656 -5.28125 158.109375 9.09375 C 148.585938 12.375 140.453125 14.015625 133.703125 14.015625 Z M 133.703125 14.015625 "/></g></g></g><g fill="#adffd8" fill-opacity="1"><g transform="translate(460.392185, 508.499994)"><g><path d="M 167.96875 -37.90625 C 155.15625 -37.90625 144.335938 -45.085938 135.515625 -59.453125 C 121.671875 -58.410156 109.425781 -57.628906 98.78125 -57.109375 C 88.132812 -56.585938 80.21875 -56.242188 75.03125 -56.078125 C 66.03125 -56.078125 58.457031 -57.414062 52.3125 -60.09375 C 46.164062 -62.78125 41.625 -67.5 38.6875 -74.25 C 37.644531 -77.1875 37.125 -79.867188 37.125 -82.296875 C 37.125 -88.003906 39.242188 -93.28125 43.484375 -98.125 C 47.722656 -102.976562 53.648438 -106.613281 61.265625 -109.03125 C 65.078125 -110.25 71.046875 -111.460938 79.171875 -112.671875 C 87.304688 -113.878906 96.484375 -114.914062 106.703125 -115.78125 C 106.359375 -116.476562 105.925781 -117.519531 105.40625 -118.90625 C 104.882812 -120.289062 104.273438 -121.414062 103.578125 -122.28125 L 66.203125 -120.71875 C 56.503906 -120.539062 48.492188 -121.707031 42.171875 -124.21875 C 35.859375 -126.726562 31.144531 -131.617188 28.03125 -138.890625 C 27 -141.828125 26.484375 -144.507812 26.484375 -146.9375 C 26.484375 -152.644531 28.601562 -157.921875 32.84375 -162.765625 C 37.082031 -167.617188 43.007812 -171.253906 50.625 -173.671875 C 56.332031 -175.753906 68.617188 -177.660156 87.484375 -179.390625 C 88.703125 -191.503906 96.925781 -199.117188 112.15625 -202.234375 C 117.34375 -203.097656 121.582031 -203.53125 124.875 -203.53125 C 131.625 -203.53125 137.160156 -201.972656 141.484375 -198.859375 C 145.816406 -195.742188 149.882812 -190.722656 153.6875 -183.796875 C 158.007812 -183.972656 163.894531 -184.0625 171.34375 -184.0625 C 181.207031 -184.0625 188.128906 -183.800781 192.109375 -183.28125 C 200.765625 -181.726562 207.773438 -178.914062 213.140625 -174.84375 C 218.503906 -170.78125 221.53125 -165.285156 222.21875 -158.359375 C 222.394531 -157.148438 222.484375 -155.59375 222.484375 -153.6875 C 222.484375 -147.113281 220.796875 -142.140625 217.421875 -138.765625 C 214.046875 -135.390625 209.328125 -133.007812 203.265625 -131.625 C 197.210938 -130.238281 188.734375 -129.023438 177.828125 -127.984375 L 181.203125 -119.421875 C 197.296875 -119.941406 209.972656 -117.953125 219.234375 -113.453125 C 228.492188 -108.953125 233.125 -100.988281 233.125 -89.5625 C 233.125 -83.332031 231.476562 -78.484375 228.1875 -75.015625 C 224.90625 -71.554688 221.054688 -69.175781 216.640625 -67.875 C 212.234375 -66.582031 206.65625 -65.421875 199.90625 -64.390625 C 200.25 -61.960938 200.421875 -60.226562 200.421875 -59.1875 C 200.421875 -55.207031 199.207031 -51.789062 196.78125 -48.9375 C 194.363281 -46.082031 190.035156 -43.441406 183.796875 -41.015625 C 178.085938 -38.941406 172.8125 -37.90625 167.96875 -37.90625 Z M 136.296875 28.03125 C 127.472656 27.863281 114.535156 25.742188 97.484375 21.671875 C 80.429688 17.609375 66.972656 12.804688 57.109375 7.265625 C 50.359375 3.628906 45.296875 -0.4375 41.921875 -4.9375 C 38.546875 -9.4375 36.859375 -14.195312 36.859375 -19.21875 C 36.859375 -23.363281 37.8125 -27.253906 39.71875 -30.890625 C 42.832031 -37.640625 47.03125 -42.398438 52.3125 -45.171875 C 57.59375 -47.941406 63.78125 -49.328125 70.875 -49.328125 L 76.328125 -49.0625 C 83.078125 -48.539062 91.988281 -46.632812 103.0625 -43.34375 C 114.144531 -40.0625 124.875 -36.429688 135.25 -32.453125 C 145.632812 -28.472656 152.5625 -25.359375 156.03125 -23.109375 C 166.414062 -16.703125 171.609375 -8.828125 171.609375 0.515625 C 171.609375 4.492188 170.65625 8.648438 168.75 12.984375 C 166.320312 19.035156 162.507812 23.144531 157.3125 25.3125 C 152.125 27.476562 145.117188 28.382812 136.296875 28.03125 Z M 136.296875 28.03125 "/></g></g></g><g fill="#adf3ff" fill-opacity="1"><g transform="translate(719.997644, 508.499994)"><g><path d="M 83.328125 26.484375 C 73.640625 26.484375 64.25 24.75 55.15625 21.28125 C 46.070312 17.820312 38.15625 12.546875 31.40625 5.453125 C 26.039062 -0.0859375 21.929688 -6.75 19.078125 -14.53125 C 16.222656 -22.320312 14.796875 -30.285156 14.796875 -38.421875 C 14.796875 -48.804688 17.085938 -58.628906 21.671875 -67.890625 C 26.265625 -77.148438 32.710938 -84.460938 41.015625 -89.828125 C 55.210938 -98.828125 73.816406 -104.363281 96.828125 -106.4375 L 95.53125 -125.390625 C 82.03125 -124.867188 71.734375 -124.609375 64.640625 -124.609375 C 61.003906 -124.609375 58.144531 -124.648438 56.0625 -124.734375 C 53.988281 -124.828125 52.695312 -124.875 52.1875 -124.875 C 44.914062 -124.695312 39.203125 -127.03125 35.046875 -131.875 C 30.890625 -136.726562 28.8125 -143.910156 28.8125 -153.421875 C 28.8125 -160.691406 30.328125 -166.40625 33.359375 -170.5625 C 36.390625 -174.71875 41.191406 -177.921875 47.765625 -180.171875 C 52.785156 -182.078125 59.1875 -183.546875 66.96875 -184.578125 C 74.757812 -185.617188 82.984375 -186.140625 91.640625 -186.140625 C 100.816406 -186.140625 109.34375 -185.445312 117.21875 -184.0625 C 125.09375 -182.675781 131.363281 -180.515625 136.03125 -177.578125 C 141.050781 -174.109375 145.25 -165.40625 148.625 -151.46875 C 152 -137.539062 154.035156 -121.320312 154.734375 -102.8125 L 171.34375 -99.6875 C 174.28125 -108.6875 177.695312 -115.21875 181.59375 -119.28125 C 185.488281 -123.351562 190.640625 -125.390625 197.046875 -125.390625 C 199.640625 -125.390625 203.097656 -124.957031 207.421875 -124.09375 C 214.867188 -122.363281 220.191406 -119.632812 223.390625 -115.90625 C 226.597656 -112.1875 228.203125 -107.210938 228.203125 -100.984375 C 228.203125 -96.660156 227.507812 -91.46875 226.125 -85.40625 C 231.65625 -83.675781 236.066406 -80.691406 239.359375 -76.453125 C 242.648438 -72.210938 244.296875 -67.238281 244.296875 -61.53125 C 244.296875 -59.101562 243.6875 -55.726562 242.46875 -51.40625 C 240.050781 -43.613281 236.894531 -37.898438 233 -34.265625 C 229.101562 -30.628906 224.128906 -28.8125 218.078125 -28.8125 C 217.210938 -28.8125 215.394531 -28.984375 212.625 -29.328125 C 209.15625 -18.773438 205.691406 -11.117188 202.234375 -6.359375 C 198.773438 -1.597656 194.101562 0.78125 188.21875 0.78125 C 185.96875 0.78125 182.679688 0.175781 178.359375 -1.03125 C 170.566406 -3.457031 165.15625 -6.660156 162.125 -10.640625 C 159.09375 -14.617188 157.578125 -19.8125 157.578125 -26.21875 C 157.578125 -30.375 158.1875 -36.257812 159.40625 -43.875 L 151.875 -45.6875 C 148.757812 -25.269531 143.910156 -9.519531 137.328125 1.5625 C 132.660156 9.175781 125.394531 15.234375 115.53125 19.734375 C 105.664062 24.234375 94.929688 26.484375 83.328125 26.484375 Z M 80.734375 -21.28125 C 85.066406 -21.28125 89.265625 -23.179688 93.328125 -26.984375 C 97.398438 -30.796875 99.867188 -35.5625 100.734375 -41.28125 C 101.078125 -45.945312 100.207031 -50.007812 98.125 -53.46875 C 96.050781 -56.9375 92.765625 -58.582031 88.265625 -58.40625 C 87.921875 -58.40625 87.097656 -58.234375 85.796875 -57.890625 C 84.503906 -57.546875 83.117188 -56.765625 81.640625 -55.546875 C 80.171875 -54.335938 79.09375 -52.609375 78.40625 -50.359375 C 76.5 -53.128906 73.816406 -54.515625 70.359375 -54.515625 C 69.492188 -54.515625 68.753906 -54.425781 68.140625 -54.25 C 67.535156 -54.082031 67.148438 -54 66.984375 -54 C 63.867188 -53.132812 61.53125 -51.617188 59.96875 -49.453125 C 58.414062 -47.285156 57.640625 -44.90625 57.640625 -42.3125 C 57.640625 -39.03125 58.585938 -36.003906 60.484375 -33.234375 C 62.910156 -29.421875 66.023438 -26.472656 69.828125 -24.390625 C 73.640625 -22.316406 77.273438 -21.28125 80.734375 -21.28125 Z M 80.734375 -21.28125 "/></g></g></g><g fill="#adb3ff" fill-opacity="1"><g transform="translate(979.603096, 508.499994)"><g><path d="M 81 20.515625 C 73.039062 20.515625 65.335938 19.5625 57.890625 17.65625 C 44.734375 14.539062 34.648438 7.144531 27.640625 -4.53125 C 20.640625 -16.21875 17.140625 -29.242188 17.140625 -43.609375 C 17.140625 -52.085938 18.347656 -59.960938 20.765625 -67.234375 C 23.191406 -74.503906 26.65625 -80.390625 31.15625 -84.890625 C 43.789062 -97.523438 58.328125 -105.832031 74.765625 -109.8125 C 74.421875 -111.195312 74.070312 -112.535156 73.71875 -113.828125 C 73.375 -115.128906 73.03125 -116.300781 72.6875 -117.34375 C 60.226562 -117.34375 50.535156 -118.035156 43.609375 -119.421875 C 36.691406 -120.804688 31.414062 -123.75 27.78125 -128.25 C 24.144531 -132.75 22.328125 -139.582031 22.328125 -148.75 C 22.328125 -157.238281 23.96875 -163.6875 27.25 -168.09375 C 30.539062 -172.507812 35.171875 -175.453125 41.140625 -176.921875 C 47.117188 -178.390625 55.210938 -179.382812 65.421875 -179.90625 C 67.492188 -184.40625 70.820312 -188.171875 75.40625 -191.203125 C 80 -194.234375 85.671875 -196.351562 92.421875 -197.5625 C 95.191406 -197.90625 97.269531 -198.078125 98.65625 -198.078125 C 104.707031 -198.078125 110.15625 -196.5625 115 -193.53125 C 119.851562 -190.507812 123.488281 -186.398438 125.90625 -181.203125 L 134.734375 -181.203125 C 145.296875 -181.203125 153.5625 -180.507812 159.53125 -179.125 C 165.5 -177.738281 170.082031 -174.96875 173.28125 -170.8125 C 176.488281 -166.664062 178.09375 -160.523438 178.09375 -152.390625 C 178.09375 -140.453125 174.890625 -132.144531 168.484375 -127.46875 C 162.078125 -122.789062 152.472656 -120.28125 139.671875 -119.9375 L 141.234375 -109.296875 C 158.359375 -107.734375 173.800781 -102.972656 187.5625 -95.015625 C 201.320312 -87.054688 211.40625 -76.238281 217.8125 -62.5625 C 221.269531 -55.125 223 -46.296875 223 -36.078125 C 223 -25.867188 221.351562 -15.914062 218.0625 -6.21875 C 214.78125 3.46875 210.457031 10.90625 205.09375 16.09375 C 202.144531 19.039062 197.472656 20.515625 191.078125 20.515625 C 183.972656 20.515625 177.738281 19.039062 172.375 16.09375 C 162.164062 10.550781 157.0625 3.800781 157.0625 -4.15625 C 157.0625 -7.445312 158.445312 -12.03125 161.21875 -17.90625 C 162.601562 -20.15625 163.296875 -22.84375 163.296875 -25.96875 C 163.296875 -30.289062 161.738281 -34.222656 158.625 -37.765625 C 155.507812 -41.316406 151.351562 -44.046875 146.15625 -45.953125 C 144.601562 -24.835938 137.984375 -8.484375 126.296875 3.109375 C 114.617188 14.710938 99.519531 20.515625 81 20.515625 Z M 208.71875 -95.53125 C 203.1875 -95.53125 198.773438 -96.484375 195.484375 -98.390625 C 190.804688 -100.816406 186.867188 -104.972656 183.671875 -110.859375 C 180.472656 -116.742188 178.875 -123.40625 178.875 -130.84375 C 178.875 -136.894531 180.691406 -142.300781 184.328125 -147.0625 C 187.960938 -151.820312 192.632812 -154.203125 198.34375 -154.203125 C 200.9375 -154.203125 203.53125 -153.6875 206.125 -152.65625 C 206.125 -152.820312 207.160156 -152.210938 209.234375 -150.828125 C 211.316406 -149.441406 213.09375 -147.625 214.5625 -145.375 C 216.039062 -143.125 216.601562 -140.441406 216.25 -137.328125 C 219.195312 -139.410156 222.398438 -140.453125 225.859375 -140.453125 C 228.285156 -140.453125 230.492188 -139.972656 232.484375 -139.015625 C 234.472656 -138.066406 235.46875 -137.503906 235.46875 -137.328125 C 240.3125 -133.523438 242.734375 -129.023438 242.734375 -123.828125 C 242.734375 -117.773438 239.707031 -111.71875 233.65625 -105.65625 C 226.90625 -98.90625 218.59375 -95.53125 208.71875 -95.53125 Z M 82.03125 -23.625 C 84.113281 -23.625 85.929688 -23.882812 87.484375 -24.40625 C 90.773438 -25.789062 93.546875 -28.210938 95.796875 -31.671875 C 98.046875 -35.128906 99.171875 -39.109375 99.171875 -43.609375 C 99.171875 -47.585938 98.175781 -51.003906 96.1875 -53.859375 C 94.195312 -56.722656 91.46875 -58.15625 88 -58.15625 C 86.625 -58.15625 85.675781 -58.066406 85.15625 -57.890625 C 84.800781 -57.890625 84.101562 -57.628906 83.0625 -57.109375 C 82.03125 -56.585938 80.953125 -55.675781 79.828125 -54.375 C 78.703125 -53.082031 78.054688 -51.3125 77.890625 -49.0625 C 76.148438 -50.789062 74.15625 -51.65625 71.90625 -51.65625 C 70.695312 -51.65625 69.613281 -51.523438 68.65625 -51.265625 C 67.707031 -51.015625 67.0625 -50.800781 66.71875 -50.625 C 62.738281 -48.550781 60.75 -45.347656 60.75 -41.015625 C 60.75 -37.210938 62.132812 -33.925781 64.90625 -31.15625 C 67.320312 -28.726562 70.046875 -26.863281 73.078125 -25.5625 C 76.109375 -24.269531 79.09375 -23.625 82.03125 -23.625 Z M 82.03125 -23.625 "/></g></g></g><g mask="url(#id5)"><g transform="matrix(1, 0, 0, 1, 852, 0.000000000000039746)"><g clip-path="url(#id7)"><g clip-path="url(#id6)"><path fill="#bdffad" d="M 223.382812 -196.039062 C 100.363281 -196.039062 0.632812 -96.308594 0.632812 26.710938 C 0.632812 149.734375 100.363281 249.460938 223.382812 249.460938 C 346.40625 249.460938 446.132812 149.734375 446.132812 26.710938 C 446.132812 -96.308594 346.40625 -196.039062 223.382812 -196.039062 " fill-opacity="1" fill-rule="nonzero"/></g></g></g></g></svg>