<svg xmlns="http://www.w3.org/2000/svg" xmlns:xlink="http://www.w3.org/1999/xlink" width="1920" zoomAndPan="magnify" viewBox="0 0 1440 431.249996" height="575" preserveAspectRatio="xMidYMid meet" version="1.0"><defs><g/></defs><g fill="#f4ffad" fill-opacity="1"><g transform="translate(1.266229, 358.580722)"><g><path d="M 185.078125 19.40625 C 166.390625 19.40625 151.894531 11.378906 141.59375 -4.671875 C 135.84375 -14.015625 132.96875 -22.519531 132.96875 -30.1875 C 132.96875 -44.5625 142.671875 -57.378906 162.078125 -68.640625 L 172.859375 -73.671875 C 183.878906 -77.984375 192.679688 -82.535156 199.265625 -87.328125 C 205.859375 -92.117188 209.15625 -98.347656 209.15625 -106.015625 C 209.15625 -119.191406 190.707031 -125.78125 153.8125 -125.78125 C 140.632812 -125.78125 126.617188 -125.179688 111.765625 -123.984375 C 107.210938 -123.742188 102.539062 -123.503906 97.75 -123.265625 C 92.957031 -123.023438 88.164062 -122.90625 83.375 -122.90625 C 67.5625 -122.90625 55.160156 -126.859375 46.171875 -134.765625 C 37.191406 -142.671875 32.703125 -154.410156 32.703125 -169.984375 C 32.703125 -181.722656 34.140625 -190.882812 37.015625 -197.46875 C 39.890625 -204.0625 44.5625 -208.972656 51.03125 -212.203125 C 57.5 -215.441406 66.84375 -217.898438 79.0625 -219.578125 C 97.988281 -222.210938 118.59375 -223.53125 140.875 -223.53125 C 165.3125 -223.53125 189.03125 -222.03125 212.03125 -219.03125 C 235.03125 -216.039062 254.078125 -211.429688 269.171875 -205.203125 C 289.296875 -196.816406 303.847656 -184.65625 312.828125 -168.71875 C 321.816406 -152.789062 326.3125 -134.644531 326.3125 -114.28125 C 326.3125 -100.863281 324.992188 -88.882812 322.359375 -78.34375 C 313.734375 -37.613281 279.234375 -7.304688 218.859375 12.578125 C 205.679688 17.128906 194.421875 19.40625 185.078125 19.40625 Z M 185.078125 19.40625 "/></g></g></g><g fill="#adffd8" fill-opacity="1"><g transform="translate(360.631495, 358.580722)"><g><path d="M 232.515625 -52.46875 C 214.785156 -52.46875 199.8125 -62.410156 187.59375 -82.296875 C 168.425781 -80.859375 151.472656 -79.78125 136.734375 -79.0625 C 122.003906 -78.34375 111.046875 -77.863281 103.859375 -77.625 C 91.398438 -77.625 80.914062 -79.476562 72.40625 -83.1875 C 63.90625 -86.90625 57.617188 -93.4375 53.546875 -102.78125 C 52.109375 -106.851562 51.390625 -110.566406 51.390625 -113.921875 C 51.390625 -121.828125 54.320312 -129.132812 60.1875 -135.84375 C 66.0625 -142.550781 74.269531 -147.582031 84.8125 -150.9375 C 90.082031 -152.613281 98.347656 -154.289062 109.609375 -155.96875 C 120.867188 -157.644531 133.566406 -159.082031 147.703125 -160.28125 C 147.222656 -161.238281 146.625 -162.675781 145.90625 -164.59375 C 145.1875 -166.507812 144.347656 -168.066406 143.390625 -169.265625 L 91.640625 -167.109375 C 78.222656 -166.867188 67.140625 -168.484375 58.390625 -171.953125 C 49.648438 -175.429688 43.125 -182.203125 38.8125 -192.265625 C 37.375 -196.335938 36.65625 -200.050781 36.65625 -203.40625 C 36.65625 -211.3125 39.585938 -218.617188 45.453125 -225.328125 C 51.328125 -232.035156 59.535156 -237.066406 70.078125 -240.421875 C 77.984375 -243.296875 94.992188 -245.929688 121.109375 -248.328125 C 122.785156 -265.097656 134.164062 -275.640625 155.25 -279.953125 C 162.4375 -281.148438 168.304688 -281.75 172.859375 -281.75 C 182.203125 -281.75 189.867188 -279.59375 195.859375 -275.28125 C 201.847656 -270.96875 207.476562 -264.019531 212.75 -254.4375 C 218.738281 -254.675781 226.882812 -254.796875 237.1875 -254.796875 C 250.84375 -254.796875 260.425781 -254.4375 265.9375 -253.71875 C 277.914062 -251.5625 287.617188 -247.664062 295.046875 -242.03125 C 302.472656 -236.40625 306.664062 -228.800781 307.625 -219.21875 C 307.863281 -217.539062 307.984375 -215.382812 307.984375 -212.75 C 307.984375 -203.644531 305.644531 -196.753906 300.96875 -192.078125 C 296.300781 -187.410156 289.773438 -184.117188 281.390625 -182.203125 C 273.003906 -180.285156 261.265625 -178.609375 246.171875 -177.171875 L 250.84375 -165.3125 C 273.125 -166.03125 290.671875 -163.273438 303.484375 -157.046875 C 316.304688 -150.816406 322.71875 -139.796875 322.71875 -123.984375 C 322.71875 -115.359375 320.441406 -108.648438 315.890625 -103.859375 C 311.335938 -99.066406 306.003906 -95.769531 299.890625 -93.96875 C 293.785156 -92.175781 286.0625 -90.5625 276.71875 -89.125 C 277.195312 -85.769531 277.4375 -83.375 277.4375 -81.9375 C 277.4375 -76.425781 275.757812 -71.691406 272.40625 -67.734375 C 269.050781 -63.785156 263.0625 -60.132812 254.4375 -56.78125 C 246.53125 -53.90625 239.222656 -52.46875 232.515625 -52.46875 Z M 188.671875 38.8125 C 176.453125 38.570312 158.539062 35.632812 134.9375 30 C 111.34375 24.375 92.71875 17.726562 79.0625 10.0625 C 69.71875 5.03125 62.707031 -0.597656 58.03125 -6.828125 C 53.363281 -13.054688 51.03125 -19.644531 51.03125 -26.59375 C 51.03125 -32.34375 52.347656 -37.734375 54.984375 -42.765625 C 59.296875 -52.109375 65.101562 -58.695312 72.40625 -62.53125 C 79.71875 -66.363281 88.285156 -68.28125 98.109375 -68.28125 L 105.65625 -67.921875 C 115 -67.203125 127.335938 -64.566406 142.671875 -60.015625 C 158.003906 -55.460938 172.859375 -50.429688 187.234375 -44.921875 C 201.609375 -39.410156 211.191406 -35.097656 215.984375 -31.984375 C 230.359375 -23.117188 237.546875 -12.21875 237.546875 0.71875 C 237.546875 6.226562 236.226562 11.976562 233.59375 17.96875 C 230.238281 26.351562 224.96875 32.039062 217.78125 35.03125 C 210.59375 38.03125 200.890625 39.289062 188.671875 38.8125 Z M 188.671875 38.8125 "/></g></g></g><g fill="#adf3ff" fill-opacity="1"><g transform="translate(719.996767, 358.580722)"><g><path d="M 115.359375 36.65625 C 101.941406 36.65625 88.941406 34.257812 76.359375 29.46875 C 63.785156 24.675781 52.828125 17.367188 43.484375 7.546875 C 36.054688 -0.117188 30.363281 -9.34375 26.40625 -20.125 C 22.457031 -30.90625 20.484375 -41.925781 20.484375 -53.1875 C 20.484375 -67.5625 23.65625 -81.15625 30 -93.96875 C 36.351562 -106.789062 45.28125 -116.914062 56.78125 -124.34375 C 76.425781 -136.800781 102.179688 -144.46875 134.046875 -147.34375 L 132.25 -173.578125 C 113.5625 -172.859375 99.304688 -172.5 89.484375 -172.5 C 84.453125 -172.5 80.5 -172.554688 77.625 -172.671875 C 74.75 -172.796875 72.953125 -172.859375 72.234375 -172.859375 C 62.171875 -172.617188 54.265625 -175.851562 48.515625 -182.5625 C 42.765625 -189.269531 39.890625 -199.210938 39.890625 -212.390625 C 39.890625 -222.453125 41.984375 -230.359375 46.171875 -236.109375 C 50.367188 -241.859375 57.019531 -246.289062 66.125 -249.40625 C 73.070312 -252.039062 81.9375 -254.078125 92.71875 -255.515625 C 103.5 -256.953125 114.878906 -257.671875 126.859375 -257.671875 C 139.554688 -257.671875 151.351562 -256.710938 162.25 -254.796875 C 173.15625 -252.878906 181.84375 -249.882812 188.3125 -245.8125 C 195.257812 -241.019531 201.066406 -228.976562 205.734375 -209.6875 C 210.410156 -190.40625 213.226562 -167.945312 214.1875 -142.3125 L 237.1875 -138 C 241.257812 -150.457031 245.988281 -159.5 251.375 -165.125 C 256.769531 -170.757812 263.898438 -173.578125 272.765625 -173.578125 C 276.359375 -173.578125 281.148438 -172.976562 287.140625 -171.78125 C 297.441406 -169.382812 304.804688 -165.609375 309.234375 -160.453125 C 313.671875 -155.304688 315.890625 -148.421875 315.890625 -139.796875 C 315.890625 -133.804688 314.929688 -126.617188 313.015625 -118.234375 C 320.679688 -115.835938 326.789062 -111.703125 331.34375 -105.828125 C 335.894531 -99.960938 338.171875 -93.078125 338.171875 -85.171875 C 338.171875 -81.816406 337.332031 -77.144531 335.65625 -71.15625 C 332.300781 -60.375 327.925781 -52.46875 322.53125 -47.4375 C 317.144531 -42.40625 310.257812 -39.890625 301.875 -39.890625 C 300.675781 -39.890625 298.160156 -40.128906 294.328125 -40.609375 C 289.535156 -25.992188 284.742188 -15.390625 279.953125 -8.796875 C 275.160156 -2.210938 268.691406 1.078125 260.546875 1.078125 C 257.429688 1.078125 252.878906 0.238281 246.890625 -1.4375 C 236.109375 -4.789062 228.617188 -9.222656 224.421875 -14.734375 C 220.234375 -20.242188 218.140625 -27.429688 218.140625 -36.296875 C 218.140625 -42.046875 218.976562 -50.191406 220.65625 -60.734375 L 210.234375 -63.25 C 205.921875 -34.976562 199.210938 -13.175781 190.109375 2.15625 C 183.640625 12.695312 173.578125 21.082031 159.921875 27.3125 C 146.265625 33.539062 131.410156 36.65625 115.359375 36.65625 Z M 111.765625 -29.46875 C 117.753906 -29.46875 123.5625 -32.101562 129.1875 -37.375 C 134.820312 -42.644531 138.238281 -49.234375 139.4375 -57.140625 C 139.914062 -63.609375 138.71875 -69.238281 135.84375 -74.03125 C 132.96875 -78.820312 128.414062 -81.097656 122.1875 -80.859375 C 121.707031 -80.859375 120.566406 -80.617188 118.765625 -80.140625 C 116.972656 -79.660156 115.054688 -78.582031 113.015625 -76.90625 C 110.984375 -75.226562 109.488281 -72.832031 108.53125 -69.71875 C 105.894531 -73.550781 102.179688 -75.46875 97.390625 -75.46875 C 96.191406 -75.46875 95.171875 -75.347656 94.328125 -75.109375 C 93.492188 -74.867188 92.957031 -74.75 92.71875 -74.75 C 88.40625 -73.550781 85.171875 -71.453125 83.015625 -68.453125 C 80.859375 -65.460938 79.78125 -62.171875 79.78125 -58.578125 C 79.78125 -54.023438 81.097656 -49.832031 83.734375 -46 C 87.085938 -40.726562 91.398438 -36.65625 96.671875 -33.78125 C 101.941406 -30.90625 106.972656 -29.46875 111.765625 -29.46875 Z M 111.765625 -29.46875 "/></g></g></g><g fill="#adb3ff" fill-opacity="1"><g transform="translate(1079.362028, 358.580722)"><g><path d="M 112.125 28.390625 C 101.101562 28.390625 90.441406 27.070312 80.140625 24.4375 C 61.929688 20.125 47.972656 9.882812 38.265625 -6.28125 C 28.566406 -22.457031 23.71875 -40.488281 23.71875 -60.375 C 23.71875 -72.113281 25.394531 -83.015625 28.75 -93.078125 C 32.101562 -103.140625 36.894531 -111.285156 43.125 -117.515625 C 60.613281 -135.003906 80.738281 -146.503906 103.5 -152.015625 C 103.019531 -153.929688 102.539062 -155.785156 102.0625 -157.578125 C 101.582031 -159.378906 101.101562 -161 100.625 -162.4375 C 83.375 -162.4375 69.957031 -163.394531 60.375 -165.3125 C 50.789062 -167.226562 43.484375 -171.300781 38.453125 -177.53125 C 33.421875 -183.757812 30.90625 -193.222656 30.90625 -205.921875 C 30.90625 -217.660156 33.179688 -226.582031 37.734375 -232.6875 C 42.285156 -238.800781 48.691406 -242.875 56.953125 -244.90625 C 65.222656 -246.945312 76.425781 -248.328125 90.5625 -249.046875 C 93.4375 -255.273438 98.046875 -260.484375 104.390625 -264.671875 C 110.742188 -268.867188 118.59375 -271.804688 127.9375 -273.484375 C 131.769531 -273.960938 134.644531 -274.203125 136.5625 -274.203125 C 144.945312 -274.203125 152.492188 -272.101562 159.203125 -267.90625 C 165.910156 -263.71875 170.941406 -258.03125 174.296875 -250.84375 L 186.515625 -250.84375 C 201.128906 -250.84375 212.566406 -249.882812 220.828125 -247.96875 C 229.097656 -246.050781 235.445312 -242.21875 239.875 -236.46875 C 244.3125 -230.71875 246.53125 -222.210938 246.53125 -210.953125 C 246.53125 -194.421875 242.097656 -182.921875 233.234375 -176.453125 C 224.367188 -169.984375 211.070312 -166.507812 193.34375 -166.03125 L 195.5 -151.296875 C 219.21875 -149.140625 240.597656 -142.550781 259.640625 -131.53125 C 278.691406 -120.507812 292.648438 -105.535156 301.515625 -86.609375 C 306.304688 -76.304688 308.703125 -64.085938 308.703125 -49.953125 C 308.703125 -35.816406 306.425781 -22.039062 301.875 -8.625 C 297.320312 4.789062 291.332031 15.09375 283.90625 22.28125 C 279.832031 26.351562 273.363281 28.390625 264.5 28.390625 C 254.675781 28.390625 246.050781 26.351562 238.625 22.28125 C 224.488281 14.613281 217.421875 5.269531 217.421875 -5.75 C 217.421875 -10.300781 219.335938 -16.648438 223.171875 -24.796875 C 225.085938 -27.910156 226.046875 -31.625 226.046875 -35.9375 C 226.046875 -41.925781 223.890625 -47.375 219.578125 -52.28125 C 215.265625 -57.195312 209.515625 -60.972656 202.328125 -63.609375 C 200.171875 -34.378906 191.003906 -11.738281 174.828125 4.3125 C 158.660156 20.363281 137.757812 28.390625 112.125 28.390625 Z M 288.9375 -132.25 C 281.269531 -132.25 275.160156 -133.566406 270.609375 -136.203125 C 264.140625 -139.554688 258.6875 -145.304688 254.25 -153.453125 C 249.820312 -161.597656 247.609375 -170.820312 247.609375 -181.125 C 247.609375 -189.507812 250.125 -196.992188 255.15625 -203.578125 C 260.1875 -210.171875 266.65625 -213.46875 274.5625 -213.46875 C 278.15625 -213.46875 281.75 -212.75 285.34375 -211.3125 C 285.34375 -211.550781 286.78125 -210.710938 289.65625 -208.796875 C 292.53125 -206.878906 294.984375 -204.363281 297.015625 -201.25 C 299.054688 -198.132812 299.835938 -194.421875 299.359375 -190.109375 C 303.429688 -192.984375 307.863281 -194.421875 312.65625 -194.421875 C 316.007812 -194.421875 319.0625 -193.757812 321.8125 -192.4375 C 324.570312 -191.125 325.953125 -190.347656 325.953125 -190.109375 C 332.660156 -184.835938 336.015625 -178.609375 336.015625 -171.421875 C 336.015625 -163.035156 331.820312 -154.648438 323.4375 -146.265625 C 314.09375 -136.921875 302.59375 -132.25 288.9375 -132.25 Z M 113.5625 -32.703125 C 116.4375 -32.703125 118.953125 -33.0625 121.109375 -33.78125 C 125.660156 -35.695312 129.492188 -39.050781 132.609375 -43.84375 C 135.722656 -48.632812 137.28125 -54.144531 137.28125 -60.375 C 137.28125 -65.882812 135.898438 -70.613281 133.140625 -74.5625 C 130.390625 -78.519531 126.617188 -80.5 121.828125 -80.5 C 119.910156 -80.5 118.59375 -80.378906 117.875 -80.140625 C 117.394531 -80.140625 116.4375 -79.78125 115 -79.0625 C 113.5625 -78.34375 112.0625 -77.082031 110.5 -75.28125 C 108.945312 -73.488281 108.050781 -71.035156 107.8125 -67.921875 C 105.414062 -70.316406 102.660156 -71.515625 99.546875 -71.515625 C 97.867188 -71.515625 96.367188 -71.332031 95.046875 -70.96875 C 93.734375 -70.613281 92.835938 -70.316406 92.359375 -70.078125 C 86.847656 -67.203125 84.09375 -62.769531 84.09375 -56.78125 C 84.09375 -51.507812 86.007812 -46.957031 89.84375 -43.125 C 93.195312 -39.769531 96.96875 -37.191406 101.15625 -35.390625 C 105.351562 -33.597656 109.488281 -32.703125 113.5625 -32.703125 Z M 113.5625 -32.703125 "/></g></g></g></svg>